PathFileType	4	(x/y/z)	S04_M20_T03.trc
DataRate	CameraRate	NumFrames	NumMarkers	Units	OrigDataRate	OrigDataStartFrame	OrigNumFrames
240	240	9	51	mm	240	212	565
Frame#	Time	Sternum			R.Acromium			L.Acromium			Top.Head			R.ASIS			L.ASIS			R.PSIS			L.PSIS			R.Great.Tro			L.Great.Tro			R.Iliac.Crest			L.Iliac.Crest			V.Sacral			R.Thigh.Upper.Post			R.Thigh.Lower.Ant			R.Thigh.Lower.Post			R.Thigh.Upper.Ant			R.Knee.Lat			R.Knee.Med			R.Shank.Upper.Post			R.Shank.Lower.Ant			R.Shank.Lower.Post			R.Shank.Upper.Ant			R.Ankle.Lat			R.Ankle.Med			R.Heel.Upper			R.Heel.Med			R.Heel.Lat			R.Toe.Lat			R.Toe.Med			R.Toe.Tip			L.Thigh.Upper.Post			L.Thigh.Lower.Ant			L.Thigh.Lower.Post			L.Thigh.Upper.Ant			L.Knee.Lat			L.Knee.Med			L.Shank.Upper.Post			L.Shank.Lower.Ant			L.Shank.Lower.Post			L.Shank.Upper.Ant			L.Ankle.Lat			L.Ankle.Med			L.Heel.Upper			L.Heel.Med			L.Heel.Lat			L.Toe.Lat			L.Toe.Med			L.Toe.Tip			Cervical.Spine			Back			
		X1	Y1	Z1	X2	Y2	Z2	X3	Y3	Z3	X4	Y4	Z4	X5	Y5	Z5	X6	Y6	Z6	X7	Y7	Z7	X8	Y8	Z8	X9	Y9	Z9	X10	Y10	Z10	X11	Y11	Z11	X12	Y12	Z12	X13	Y13	Z13	X14	Y14	Z14	X15	Y15	Z15	X16	Y16	Z16	X17	Y17	Z17	X18	Y18	Z18	X19	Y19	Z19	X20	Y20	Z20	X21	Y21	Z21	X22	Y22	Z22	X23	Y23	Z23	X24	Y24	Z24	X25	Y25	Z25	X26	Y26	Z26	X27	Y27	Z27	X28	Y28	Z28	X29	Y29	Z29	X30	Y30	Z30	X31	Y31	Z31	X32	Y32	Z32	X33	Y33	Z33	X34	Y34	Z34	X35	Y35	Z35	X36	Y36	Z36	X37	Y37	Z37	X38	Y38	Z38	X39	Y39	Z39	X40	Y40	Z40	X41	Y41	Z41	X42	Y42	Z42	X43	Y43	Z43	X44	Y44	Z44	X45	Y45	Z45	X46	Y46	Z46	X47	Y47	Z47	X48	Y48	Z48	X49	Y49	Z49	X50	Y50	Z50	X51	Y51	Z51	

212	0.87917	236.24	1234.5	269.08	128.07	1456.6	466.08	73.643	1447	118.24	101.22	1787.4	282.03	241.69	955.77	389.09	178.27	960.64	146.18	11.546	996	350.53	0.93018	999.58	270.64	179.28	887	478.69	33.176	893.13	117.57	164.4	1040.6	458.03	81.132	1048.8	125.2	-15.53	956.57	315.58	264.57	641.14	456.34	359.41	597.48	404.94	298.46	559.19	434.26	326.56	700.11	432.27	347.39	510.87	419.33	304.73	493.49	292.83	338.89	272.09	418.89	418.85	216.66	368.47	356.63	205.67	403.43	399.7	283.14	393.64	395.4	98.973	379.03	408.75	120.26	288.98	342.58	64.712	319.63	356.16	36.235	289.46	350.2	32.591	353.94	516.1	65.006	402.11	548.09	81.978	287.52	602.13	119.68	335.49	-47.987	682.74	133.33	-2.1821	566.93	112.39	-64.668	594.81	138.28	9.1969	656.59	104.81	-66.059	494.53	128.13	-38.997	465.86	248.68	-242.74	405.1	149.48	-243.55	294.13	143.06	-285.56	340.92	158.4	-200.91	357.49	134.14	-353.61	181.26	171.21	-334.53	190.46	260.93	-424.42	213.22	224.14	-433.06	193.37	260.43	-442.93	189.32	199.05	-324.1	57.22	155.14	-284.44	49.121	267.44	-242.08	37.287	218.49	51.158	1504.6	304	-25.494	1246.8	291.08
213	0.88333	242.44	1235.2	269.9	133.65	1457.1	466.87	79.807	1447.7	118.93	107.01	1788	282.85	247.73	956.62	390.02	184.8	960.91	147.07	17.514	996.72	350.65	7.1066	1000	270.7	185.06	888.05	479.36	39.962	892.93	118.02	170.22	1041.3	458.59	87.817	1049.3	125.57	-9.4675	957.17	315.73	270.44	641.92	456.88	365.2	598.16	405.46	304.22	559.94	434.77	332.51	700.81	432.9	352.98	511.32	419.69	310.38	494.4	293.32	342.45	272.55	419.5	421.61	216.28	368.69	359.43	205.94	403.97	403.23	282.97	393.88	396.82	98.78	379.38	410.27	120.06	289.36	343.36	65.31	319.98	356.53	36.778	289.66	350.59	32.924	354.14	517.18	63.098	402.01	549.13	80.015	287.42	603.88	116.76	335.4	-40.118	681.65	133.27	6.4336	566.26	111.67	-56.161	593.61	137.88	17.181	656.03	104.51	-57.009	493.69	127.25	-29.469	464.36	247.56	-234.43	406.59	149.07	-236.83	295.71	142.26	-278.08	343.01	157.96	-193.34	358.47	133.39	-348.41	184.22	170.38	-328.64	193.11	260.02	-417.78	218.4	223.47	-426.84	199.06	259.93	-437.14	194.92	198.63	-322.58	58.993	155.05	-282.51	50.532	267.12	-241.13	36.914	218.16	56.978	1505.1	304.69	-19.314	1247.2	291.41
214	0.8875	248.59	1236	270.71	139.2	1457.8	467.64	85.982	1448.5	119.6	112.77	1788.7	283.67	253.7	957.51	390.94	191.25	961.25	147.95	23.431	997.48	350.79	13.22	1000.5	270.78	190.77	889.1	480.02	46.691	892.77	118.49	175.98	1042	459.15	94.395	1049.8	125.97	-3.4619	957.81	315.9	276.17	642.67	457.43	370.85	598.77	406	309.82	560.65	435.29	338.36	701.46	433.56	358.42	511.74	420.06	315.91	495.28	293.81	345.9	273	420.11	424.27	215.91	368.92	362.12	206.2	404.51	406.63	282.81	394.13	398.16	98.608	379.73	411.7	119.9	289.75	344.1	65.873	320.34	356.9	37.307	289.86	350.97	33.241	354.33	518.19	61.281	401.91	550.09	78.156	287.33	605.51	113.96	335.3	-32.187	680.54	133.19	15.163	565.62	110.96	-47.554	592.38	137.47	25.24	655.48	104.21	-47.78	492.84	126.38	-19.772	462.87	246.46	-225.89	408.1	148.66	-229.9	297.33	141.45	-270.37	345.12	157.52	-185.54	359.47	132.64	-342.98	187.28	169.53	-322.52	195.82	259.1	-410.85	223.63	222.76	-420.33	204.81	259.39	-431.06	200.61	198.18	-320.86	60.948	154.92	-280.36	52.096	266.76	-240.02	36.552	217.77	62.77	1505.7	305.35	-13.195	1247.7	291.71
215	0.89167	254.68	1236.8	271.53	144.7	1458.5	468.39	92.164	1449.3	120.24	118.51	1789.3	284.48	259.61	958.42	391.84	197.63	961.66	148.84	29.296	998.26	350.95	19.27	1001	270.88	196.43	890.15	480.66	53.354	892.65	118.97	181.7	1042.9	459.7	100.86	1050.4	126.4	2.4859	958.49	316.1	281.76	643.37	457.99	376.35	599.31	406.56	315.25	561.3	435.81	344.09	702.03	434.25	363.68	512.12	420.46	321.29	496.12	294.28	349.22	273.44	420.71	426.82	215.56	369.16	364.71	206.46	405.03	409.92	282.64	394.38	399.44	98.454	380.08	413.06	119.76	290.13	344.78	66.401	320.68	357.24	37.816	290.05	351.33	33.543	354.53	519.14	59.557	401.82	550.97	76.393	287.23	607.03	111.28	335.2	-24.199	679.44	133.1	23.998	564.99	110.26	-38.852	591.15	137.05	33.367	654.96	103.91	-38.379	492	125.51	-9.9164	461.4	245.39	-217.11	409.62	148.25	-222.74	298.98	140.65	-262.42	347.26	157.09	-177.52	360.49	131.89	-337.31	190.44	168.68	-316.19	198.59	258.18	-403.65	228.92	222.03	-413.53	210.61	258.83	-424.68	206.38	197.7	-318.92	63.092	154.76	-277.98	53.813	266.34	-238.72	36.213	217.29	68.534	1506.3	305.99	-7.1414	1248.3	291.99
216	0.89583	260.7	1237.6	272.34	150.17	1459.2	469.12	98.349	1450.2	120.86	124.21	1790.1	285.28	265.46	959.36	392.73	203.93	962.13	149.71	35.113	999.07	351.14	25.254	1001.6	271.02	202.04	891.19	481.3	59.943	892.59	119.48	187.37	1043.7	460.25	107.21	1051.1	126.86	8.3754	959.19	316.32	287.21	644.03	458.54	381.7	599.77	407.12	320.5	561.9	436.31	349.72	702.54	434.96	368.77	512.46	420.85	326.5	496.91	294.74	352.42	273.85	421.29	429.27	215.21	369.38	367.2	206.71	405.53	413.08	282.47	394.62	400.65	98.316	380.41	414.35	119.63	290.49	345.43	66.895	321.01	357.57	38.303	290.24	351.69	33.83	354.71	520.02	57.926	401.73	551.79	74.716	287.12	608.45	108.71	335.08	-16.155	678.33	133	32.933	564.39	109.57	-30.062	589.93	136.63	41.56	654.45	103.61	-28.813	491.16	124.65	0.086767	459.98	244.36	-208.12	411.15	147.84	-215.36	300.66	139.86	-254.24	349.42	156.66	-169.28	361.54	131.16	-331.39	193.69	167.83	-309.63	201.42	257.28	-396.18	234.25	221.29	-406.45	216.44	258.25	-418.03	212.22	197.2	-316.73	65.428	154.56	-275.34	55.678	265.86	-237.2	35.913	216.74	74.268	1507	306.61	-1.1541	1248.9	292.26
217	0.9	266.67	1238.4	273.14	155.61	1460	469.83	104.53	1451.1	121.45	129.9	1790.8	286.09	271.24	960.3	393.6	210.14	962.67	150.57	40.88	999.9	351.36	31.171	1002.2	271.2	207.59	892.2	481.92	66.453	892.58	120	193.01	1044.6	460.79	113.45	1051.7	127.36	14.206	959.93	316.58	292.51	644.63	459.09	386.89	600.15	407.69	325.57	562.43	436.8	355.22	702.97	435.68	373.68	512.74	421.25	331.53	497.64	295.18	355.49	274.23	421.84	431.62	214.87	369.6	369.58	206.94	406	416.12	282.29	394.85	401.8	98.192	380.72	415.57	119.51	290.83	346.04	67.355	321.33	357.89	38.762	290.42	352.02	34.105	354.89	520.86	56.388	401.63	552.54	73.121	287	609.76	106.26	334.94	-8.0595	677.24	132.9	41.958	563.82	108.91	-21.188	588.72	136.22	49.812	653.97	103.33	-19.091	490.35	123.81	10.224	458.61	243.39	-198.9	412.69	147.44	-207.76	302.38	139.1	-245.84	351.6	156.25	-160.84	362.6	130.45	-325.24	197.04	166.99	-302.87	204.3	256.4	-388.45	239.58	220.56	-399.09	222.27	257.66	-411.09	218.08	196.69	-314.25	67.956	154.31	-272.42	57.685	265.33	-235.45	35.672	216.1	79.971	1507.7	307.2	4.7655	1249.6	292.51
218	0.90417	272.57	1239.3	273.93	161.02	1460.9	470.52	110.71	1452.1	122.03	135.55	1791.6	286.88	276.97	961.25	394.44	216.26	963.28	151.4	46.598	1000.7	351.63	37.022	1002.9	271.42	213.1	893.18	482.53	72.88	892.62	120.54	198.63	1045.5	461.33	119.56	1052.5	127.89	19.977	960.69	316.88	297.67	645.18	459.63	391.92	600.43	408.26	330.46	562.9	437.27	360.61	703.32	436.4	378.4	512.98	421.63	336.34	498.31	295.59	358.43	274.59	422.35	433.86	214.53	369.8	371.85	207.16	406.42	419.03	282.1	395.07	402.89	98.083	381	416.72	119.4	291.15	346.6	67.781	321.62	358.18	39.191	290.6	352.35	34.367	355.05	521.63	54.945	401.53	553.23	71.601	286.86	610.99	103.91	334.78	0.086408	676.16	132.8	51.069	563.29	108.29	-12.234	587.53	135.82	58.122	653.52	103.05	-9.2215	489.56	123	20.483	457.32	242.48	-189.48	414.24	147.06	-199.95	304.14	138.36	-237.22	353.8	155.85	-152.19	363.69	129.76	-318.83	200.46	166.17	-295.89	207.23	255.54	-380.48	244.9	219.84	-391.48	228.06	257.08	-403.89	223.95	196.19	-311.46	70.676	154.01	-269.2	59.825	264.73	-233.43	35.509	215.38	85.644	1508.4	307.78	10.618	1250.4	292.76
219	0.90833	278.41	1240.2	274.71	166.4	1461.7	471.18	116.86	1453.1	122.58	141.18	1792.4	287.67	282.64	962.21	395.24	222.3	963.94	152.22	52.268	1001.6	351.94	42.805	1003.5	271.69	218.56	894.12	483.13	79.22	892.72	121.1	204.22	1046.5	461.87	125.55	1053.2	128.45	25.688	961.47	317.23	302.68	645.69	460.15	396.79	600.64	408.81	335.17	563.31	437.72	365.89	703.6	437.12	382.93	513.17	422.01	340.95	498.9	295.99	361.24	274.92	422.81	436	214.19	369.99	374.02	207.36	406.81	421.81	281.9	395.27	403.93	97.987	381.26	417.8	119.3	291.44	347.13	68.176	321.88	358.46	39.59	290.76	352.66	34.618	355.21	522.36	53.596	401.42	553.86	70.151	286.71	612.13	101.67	334.59	8.2811	675.11	132.69	60.258	562.8	107.7	-3.2053	586.37	135.44	66.485	653.11	102.8	0.78621	488.8	122.21	30.849	456.11	241.64	-179.87	415.81	146.69	-191.93	305.92	137.65	-228.4	356.01	155.47	-143.35	364.81	129.1	-312.19	203.97	165.37	-288.7	210.2	254.71	-372.29	250.19	219.15	-383.63	233.8	256.51	-396.43	229.8	195.7	-308.33	73.581	153.66	-265.66	62.088	264.06	-231.1	35.447	214.56	91.285	1509.2	308.34	16.403	1251.2	293
220	0.9125	284.18	1241.1	275.47	171.76	1462.6	471.83	123	1454.1	123.11	146.78	1793.2	288.45	288.24	963.16	396.02	228.25	964.67	153	57.888	1002.5	352.29	48.522	1004.2	272.01	223.97	895.03	483.71	85.474	892.88	121.68	209.78	1047.5	462.4	131.42	1054	129.06	31.339	962.27	317.62	307.55	646.15	460.66	401.5	600.77	409.35	339.71	563.67	438.15	371.04	703.82	437.83	387.29	513.32	422.36	345.33	499.41	296.36	363.91	275.23	423.23	438.03	213.85	370.16	376.07	207.55	407.15	424.47	281.69	395.45	404.9	97.905	381.49	418.83	119.2	291.69	347.62	68.54	322.12	358.73	39.958	290.91	352.96	34.859	355.34	523.04	52.343	401.3	554.45	68.769	286.55	613.18	99.54	334.37	16.523	674.1	132.6	69.52	562.37	107.15	5.8955	585.24	135.09	74.899	652.75	102.56	10.922	488.1	121.46	41.307	455	240.89	-170.09	417.39	146.35	-183.7	307.73	136.99	-219.38	358.23	155.12	-134.32	365.95	128.47	-305.3	207.54	164.61	-281.31	213.21	253.92	-363.9	255.43	218.5	-375.56	239.45	255.98	-388.73	235.6	195.23	-304.83	76.664	153.25	-261.76	64.462	263.32	-228.43	35.513	213.64	96.896	1510.1	308.88	22.123	1252.1	293.25
